HIERARCHY
ROOT pelvis
{
  OFFSET 0 100 0
  CHANNELS 6 Xposition Yposition Zposition Zrotation Xrotation Yrotation
  JOINT pelvis_right_femur
  {
    OFFSET -10.78128 -3.44521 -0.5502486
    CHANNELS 3 Zrotation Xrotation Yrotation
    JOINT right_femur_tibia
    {
      OFFSET -0.8047443 -44.0398 -0.1307829
      CHANNELS 3 Zrotation Xrotation Yrotation
      JOINT right_tibia_foot
      {
        OFFSET 3.006224 -47.83518 -5
        CHANNELS 3 Zrotation Xrotation Yrotation
        End Site
        {
          OFFSET 0 -5 15
        }
      }
    }
  }
  JOINT pelvis_left_femur
  {
    OFFSET 10.78128 -3.44521 -0.5502486
    CHANNELS 3 Zrotation Xrotation Yrotation
    JOINT left_femur_tibia
    {
      OFFSET 0.8047443 -44.0398 -0.1307829
      CHANNELS 3 Zrotation Xrotation Yrotation
      JOINT left_tibia_foot
      {
        OFFSET -4.370144 -48.10324 -4.275266
        CHANNELS 3 Zrotation Xrotation Yrotation
        End Site
        {
          OFFSET 0 -5 15
        }
      }
    }
  }
  JOINT pelvis_spine1
  {
    OFFSET 0 6.468898 -3.129235
    CHANNELS 3 Zrotation Xrotation Yrotation
    JOINT spine1
    {
      OFFSET 0 23.15396 4.99043
      CHANNELS 3 Zrotation Xrotation Yrotation
      JOINT spine2
      {
        OFFSET 0 20.79997 -5.064912
        CHANNELS 3 Zrotation Xrotation Yrotation
        JOINT neck
        {
          OFFSET 0 14.38658 9.616178
          CHANNELS 3 Zrotation Xrotation Yrotation
          End Site
          {
            OFFSET 0 20 0
          }
        }
      }
      JOINT right_manubrium
      {
        OFFSET -5.722621 16.35077 3.967754
        CHANNELS 3 Zrotation Xrotation Yrotation
        JOINT right_clavicle
        {
          OFFSET -13.16364 1.694482 -4.693211
          CHANNELS 3 Zrotation Xrotation Yrotation
          JOINT right_humerus
          {
            OFFSET -28.5034 -0.3100689 -2.792744
            CHANNELS 3 Zrotation Xrotation Yrotation
            JOINT right_radius
            {
              OFFSET -25.15693 0.02248979 -1.271978
              CHANNELS 3 Zrotation Xrotation Yrotation
              End Site
              {
                OFFSET -15 0 0
              }
            }
          }
        }
      }
      JOINT left_manubrium
      {
        OFFSET 5.722621 16.35077 3.967754
        CHANNELS 3 Zrotation Xrotation Yrotation
        JOINT left_clavicle
        {
          OFFSET 13.16364 1.694482 -4.693211
          CHANNELS 3 Zrotation Xrotation Yrotation
          JOINT left_humerus
          {
            OFFSET 29.39168 -1.063119 -2.237045
            CHANNELS 3 Zrotation Xrotation Yrotation
            JOINT left_radius
            {
              OFFSET 24.59957 -0.9528479 0.9047498
              CHANNELS 3 Zrotation Xrotation Yrotation
              End Site
              {
                OFFSET 15 -0 -0
              }
            }
          }
        }
      }
    }
  }
}
MOTION
Frames: 23
Frame Time: 0.0416666666667
0 103.5113 0 -0.134238 -0.6179226 0.05523415 5.74584 -15.65991 9.975838 -0 36.97194 -0 -9.664427 -20.90563 -5.659693 -4.674104 7.847869 -21.06165 -0 5.490132 -0 15.02692 -11.13452 24.77449 -2.623405 -2.752018 5.183988 2.72364 10.05424 -7.724473 1.562166 21.03147 6.119489 2.79262 -25.83155 9.247714 5.345888 -20.03711 11.40766 85.4447 34.67577 -17.87044 -0 0 16.44768 -8.469887 8.750576 4.694449 6.54369 -20.55627 -0.2186931 -92.69608 22.08585 21.43153 0 0 -13.58587 13.0556 15.33105 -1.606533
0.1546898 103.566 1.469131 -0.2581762 0.2816561 0.1519424 6.35635 -18.56308 10.88344 -0 37.0238 -0 -9.011882 -20.53717 -5.750395 -4.826222 8.67887 -21.27671 -0 6.57391 -0 15.04379 -12.25942 24.77183 -2.296234 -2.70511 4.944564 2.861082 9.885452 -8.067755 1.611133 20.47348 6.498478 3.112716 -26.52453 9.55285 5.253068 -19.62161 11.30061 86.29381 34.85456 -19.20254 -0 0 15.627 -8.393498 9.198562 4.216776 7.148474 -21.045 0.03509031 -92.41087 21.70666 20.55509 0 0 -14.94467 13.67309 15.24055 -2.175229
0.3274395 103.4598 3.020781 0.09142343 -0.3257417 0.206303 5.652684 -19.19973 9.585483 -0 36.03689 -0 -7.912048 -18.35848 -4.948591 -5.487876 10.38321 -21.59268 -0 6.58199 -0 12.56734 -14.66095 25.08779 -2.204121 -2.471241 4.887232 2.88962 9.83591 -7.984759 1.481933 20.55948 6.566308 3.229044 -26.17756 9.240845 5.457034 -19.21791 11.39838 85.87937 34.60531 -18.98246 -0 0 15.13954 -8.73459 9.326962 4.85531 6.891312 -21.0066 -0.2837275 -92.32967 22.22603 20.43346 0 0 -15.43761 12.31101 14.95899 -0.5167193
0.4888238 103.3378 4.713108 0.03309811 0.06543854 0.2707948 5.877691 -21.42428 9.355702 -0 34.84065 -0 -7.446747 -16.93498 -4.5885 -5.670805 11.26407 -21.46193 -0 7.389005 -0 11.70857 -16.13865 24.84594 -2.061629 -2.341385 4.766918 2.935797 9.718654 -8.044255 1.435413 20.43737 6.744828 3.415465 -26.20986 9.194923 5.57977 -18.8608 11.39366 85.92596 34.61241 -19.33387 -0 0 14.64135 -8.818135 9.53921 4.984952 6.963603 -21.13762 -0.3738175 -92.26788 22.57411 20.15611 0 0 -16.17226 11.68033 14.85964 0.3695877
0.6492549 103.1475 6.571699 -0.01139907 0.4713848 0.3497857 5.967805 -23.57246 8.979313 -0 33.34103 -0 -6.840287 -15.30531 -4.167583 -5.877944 12.13955 -21.30789 -0 7.856328 -0 10.2936 -17.87154 24.43806 -1.931849 -2.206678 4.651491 2.978059 9.604387 -8.091142 1.384491 20.34387 6.902409 3.582995 -26.20473 9.128116 5.700114 -18.52455 11.39543 85.94527 34.61406 -19.62813 -0 0 14.17924 -8.918741 9.733991 5.145202 6.997939 -21.24062 -0.4818671 -92.21258 22.94627 19.92101 0 0 -16.84443 10.99297 14.75587 1.30901
0.7990458 102.9204 8.667482 -0.2291064 1.149127 0.4610573 6.390481 -26.02353 8.797954 -0 31.4276 -0 -6.637866 -13.84015 -3.861123 -5.862554 12.70013 -20.86207 -0 8.677762 -0 9.370201 -19.11774 23.70524 -1.793384 -2.082492 4.526553 3.02195 9.480902 -8.156188 1.343619 20.22703 7.068823 3.754492 -26.23926 9.09037 5.807236 -18.20146 11.38642 86.02666 34.64571 -19.98957 -0 0 13.72543 -8.991833 9.941631 5.247349 7.065638 -21.36052 -0.5668765 -92.16001 23.3021 19.67906 0 0 -17.5397 10.37914 14.67614 2.168291
0.9370828 102.6565 11.051 -0.5170839 1.911666 0.6188045 6.880572 -28.39055 8.639934 -0 29.28755 -0 -6.58255 -12.38802 -3.591966 -5.750703 13.14938 -20.31387 -0 9.579988 -0 8.273107 -20.18894 22.70513 -1.652288 -1.9581 4.399145 3.067638 9.358589 -8.227022 1.304498 20.10714 7.228543 3.917943 -26.2776 9.05353 5.901179 -17.89181 11.37868 86.12934 34.67691 -20.35711 -0 0 13.28262 -9.072463 10.152 5.345391 7.131874 -21.47912 -0.6488645 -92.09763 23.63137 19.43702 0 0 -18.22203 9.787407 14.59171 2.990134
1.05529 102.3783 13.78662 -0.9001944 2.672034 0.8364175 7.473421 -30.45809 8.480475 -0 27.07461 -0 -6.876542 -11.00684 -3.368441 -5.487122 13.46266 -19.64863 -0 10.90716 -0 7.110886 -20.80877 21.39535 -1.510968 -1.824116 4.27016 3.118002 9.242462 -8.298879 1.260716 19.99453 7.374191 4.067305 -26.30029 8.999154 5.981373 -17.58921 11.37995 86.23297 34.68915 -20.7016 -0 0 12.84015 -9.187522 10.36227 5.475749 7.17584 -21.58738 -0.7404411 -92.01044 23.92299 19.18637 0 0 -18.87873 9.184825 14.4777 3.801809
1.148289 102.1107 16.92384 -1.339675 3.308274 1.117048 8.058303 -31.97556 8.247144 -0 25.01356 -0 -7.451288 -9.686519 -3.1631 -5.109001 13.67891 -18.94692 -0 12.72544 -0 5.673316 -20.96716 19.80121 -1.376579 -1.678256 4.14226 3.173837 9.137341 -8.36698 1.209081 19.90031 7.497984 4.194897 -26.29434 8.917567 6.046577 -17.29625 11.39419 86.32251 34.67453 -20.99805 -0 0 12.40152 -9.350151 10.56458 5.656722 7.182737 -21.67582 -0.8473155 -91.89187 24.16854 18.92761 0 0 -19.48435 8.56352 14.32238 4.604623
1.211167 101.8932 20.49898 -1.810177 3.677774 1.447532 8.570774 -32.65687 7.862832 -0 23.32708 -0 -8.347791 -8.474513 -2.953868 -4.622705 13.74061 -18.2231 -0 15.32728 -0 4.010126 -20.46764 17.97579 -1.258216 -1.515995 4.018139 3.236533 9.049243 -8.425569 1.144795 19.83869 7.590318 4.291185 -26.24178 8.794772 6.094644 -17.01442 11.42673 86.37928 34.6225 -21.21505 -0 0 11.96768 -9.582467 10.75037 5.915214 7.132535 -21.73228 -0.9778837 -91.73037 24.35663 18.65768 0 0 -20.00941 7.908601 14.10676 5.405751
1.244752 101.7788 24.51812 -2.258553 3.680275 1.79319 8.937208 -32.30089 7.28924 -0 22.15735 -0 -9.478598 -7.4396 -2.724147 -4.07578 13.53653 -17.48106 -0 18.90443 -0 2.233029 -19.21807 16.05137 -1.167584 -1.338635 3.903051 3.303928 8.983623 -8.468256 1.066376 19.82235 7.643079 4.347839 -26.12946 8.624783 6.123753 -16.75237 11.479 86.38831 34.53209 -21.32529 -0 0 11.55234 -9.896905 10.90973 6.262485 7.012784 -21.74575 -1.134556 -91.52318 24.48261 18.38264 0 0 -20.42093 7.221179 13.82392 6.199614
1.256395 101.8302 28.94883 -2.616276 3.251355 2.098 9.107266 -30.75276 6.522748 -0 21.51383 -0 -10.74143 -6.677686 -2.467861 -3.528801 12.85615 -16.67954 -0 23.65577 -0 0.6092705 -17.15788 14.21236 -1.118134 -1.14913 3.805732 3.370672 8.947282 -8.486517 0.973668 19.86381 7.647859 4.356932 -25.94219 8.402919 6.131365 -16.52344 11.55133 86.33172 34.40462 -21.29532 -0 0 11.17767 -10.30968 11.03326 6.708263 6.812777 -21.70455 -1.317833 -91.26966 24.54195 18.11342 0 0 -20.68275 6.505907 13.46818 6.978844
1.260134 102.107 33.71382 -2.803436 2.419431 2.298228 9.050087 -28.00639 5.620134 -0 21.19163 -0 -11.96842 -6.278289 -2.196859 -3.059202 11.43266 -15.75918 -0 29.56811 -0 -0.5792468 -14.4091 12.6475 -1.123769 -0.9546843 3.740221 3.425796 8.947198 -8.469046 0.8699783 19.97242 7.59809 4.313537 -25.66641 8.130547 6.115263 -16.34852 11.64101 86.18937 34.2479 -21.08782 -0 0 10.88089 -10.83448 11.11342 7.252254 6.529259 -21.5983 -1.523091 -90.9783 24.53606 17.87306 0 0 -20.75897 5.775986 13.04312 7.73263
1.272492 102.6386 38.69701 -2.747525 1.288678 2.343043 8.744604 -24.18525 4.656109 -0 20.78704 -0 -12.99642 -6.279667 -1.92818 -2.7265 9.00079 -14.66134 -0 36.32085 -0 -1.131089 -11.27331 11.49152 -1.196378 -0.7651435 3.72667 3.45251 8.990632 -8.401287 0.7619082 20.15234 7.489529 4.21688 -25.28966 7.813749 6.07323 -16.25486 11.74321 85.93635 34.07301 -20.65843 -0 0 10.71297 -11.48678 11.14716 7.888191 6.166588 -21.41861 -1.741038 -90.66554 24.46863 17.69594 0 0 -20.61775 5.050347 12.55841 8.449387
1.306167 103.3965 43.76438 -2.411921 0.01571945 2.217372 8.191079 -19.5573 3.694464 -0 19.82543 -0 -13.70675 -6.621625 -1.668586 -2.533405 5.433778 -13.3663 -0 43.13346 -0 -1.031893 -8.213725 10.80741 -1.34192 -0.59243 3.790709 3.428514 9.083149 -8.266137 0.6597974 20.39892 7.322392 4.072725 -24.80435 7.464792 6.003866 -16.27399 11.85089 85.54388 33.89304 -19.95951 -0 0 10.73678 -12.28035 11.1383 8.601785 5.739766 -21.16135 -1.957036 -90.35844 24.34713 17.62904 0 0 -20.23874 4.352422 12.03187 9.119283
1.365203 104.2791 48.79582 -1.826399 -1.260231 1.949712 7.448139 -14.47611 2.764823 -0 18.01749 -0 -14.08033 -7.144707 -1.404558 -2.394609 0.869282 -11.90386 -0 48.8181 -0 -0.4402148 -5.705752 10.62193 -1.555877 -0.4479807 3.959861 3.329144 9.226215 -8.046565 0.5766276 20.69573 7.102883 3.894512 -24.21135 7.101059 5.907059 -16.43587 11.95582 84.98307 33.7182 -18.94786 -0 0 11.01792 -13.22416 11.09917 9.37239 5.274807 -20.82858 -2.152582 -90.09303 24.181 17.72653 0 0 -19.62188 3.705689 11.48677 9.737636
1.446478 105.1271 53.71436 -1.106944 -2.464755 1.599084 6.666437 -9.318503 1.880523 -0 15.48786 -0 -14.19504 -7.671549 -1.121123 -2.148329 -4.246087 -10.33503 -0 52.06411 -0 0.4066089 -4.049149 10.9551 -1.820039 -0.3394627 4.256122 3.133533 9.413983 -7.730583 0.5255508 21.01411 6.844024 3.702564 -23.52417 6.742758 5.78465 -16.75996 12.04993 84.23393 33.55066 -17.59999 -0 0 11.60885 -14.3154 11.04958 10.17465 4.806353 -20.42988 -2.308615 -89.90966 23.98162 18.0389 0 0 -18.79509 3.126569 10.94837 10.30929
1.548257 105.7641 58.49911 -0.434564 -3.584412 1.225448 6.054046 -4.404952 1.06719 -0 12.76086 -0 -14.16175 -8.141472 -0.8320339 -1.620395 -9.288693 -8.720155 -0 51.91866 -0 1.31786 -3.235624 11.79685 -2.103794 -0.2674895 4.686481 2.83259 9.631747 -7.317473 0.5161304 21.31747 6.564411 3.520059 -22.77015 6.408795 5.640422 -17.24569 12.12705 83.29815 33.3811 -15.93033 -0 0 12.52892 -15.53426 11.01287 10.9821 4.371041 -19.98165 -2.410593 -89.84303 23.76082 18.59574 0 0 -17.81566 2.617693 10.43765 10.8502
1.679995 106.0446 63.1815 0.01149111 -4.609147 0.8599989 5.772623 0.05646674 0.3732805 -0 10.46498 -0 -14.03329 -8.683059 -0.5844854 -0.7155379 -13.69882 -7.115042 -0 48.18291 -0 2.199775 -2.983009 13.04822 -2.371175 -0.2246722 5.235788 2.434867 9.857743 -6.822321 0.5510542 21.57001 6.28551 3.367168 -21.98749 6.113456 5.479562 -17.86713 12.18379 82.21025 33.19143 -14.00475 -0 0 13.7489 -16.84338 11.01085 11.77026 3.999285 -19.50506 -2.453069 -89.9104 23.52984 19.38927 0 0 -16.76294 2.166303 9.96637 11.38411
1.865706 105.8904 67.8338 0.1289958 -5.483222 0.4922714 5.84028 3.989408 -0.1515586 -0 8.99792 -0 -13.76786 -9.533377 -0.4259721 0.5141302 -17.16104 -5.596887 -0 41.48476 -0 3.00751 -2.910816 14.50135 -2.590969 -0.1982231 5.866463 1.966634 10.06845 -6.275879 0.6251177 21.74602 6.028892 3.25629 -21.21892 5.866021 5.308032 -18.57507 12.2192 81.03975 32.96417 -11.94093 -0 0 15.18835 -18.1935 11.06019 12.51751 3.709591 -19.02371 -2.441477 -90.10388 23.29884 20.36724 0 0 -15.72486 1.750774 9.536263 11.93373
2.138587 105.3067 72.55501 -0.06926491 -6.116415 0.08243969 6.110426 7.425987 -0.484655 -0 8.427804 -0 -13.27841 -10.84632 -0.3646164 1.856192 -19.60483 -4.298313 -0 33.0528 -0 3.655179 -2.739908 15.89672 -2.744823 -0.1749226 6.525145 1.46639 10.24475 -5.719528 0.7267788 21.83587 5.814313 3.190526 -20.50491 5.672933 5.132497 -19.3052 12.23362 79.88104 32.69357 -9.893279 -0 0 16.72654 -19.53053 11.17083 13.20352 3.507567 -18.56204 -2.390508 -90.39081 23.07792 21.43918 0 0 -14.78386 1.352041 9.143208 12.51036
2.530198 104.3803 77.45387 -0.4597926 -6.454437 -0.4095135 6.32067 10.46322 -0.6414867 -0 8.655272 -0 -12.52272 -12.51203 -0.35536 2.9738 -21.07971 -3.430782 -0 24.3948 -0 3.962194 -2.418572 17.03066 -2.830062 -0.1457006 7.152705 0.9770926 10.37615 -5.197922 0.8410774 21.84688 5.657921 3.165053 -19.87877 5.539544 4.960695 -19.98867 12.22796 78.83505 32.39184 -8.027841 -0 0 18.22159 -20.8002 11.34498 13.80755 3.388313 -18.14447 -2.320393 -90.72076 22.87788 22.49231 0 0 -14.00656 0.9636151 8.783163 13.10602
3.058294 103.2601 82.63088 -0.8401739 -6.558287 -0.9962939 6.177117 13.21431 -0.6743092 -0 9.661312 -0 -11.56898 -14.07039 -0.3162093 3.481783 -21.63879 -3.265199 -0 17.00875 -0 3.682048 -2.137206 17.843 -2.857202 -0.1077549 7.693856 0.5390886 10.4621 -4.752215 0.9526166 21.79929 5.569861 3.169899 -19.36337 5.469284 4.801518 -20.56229 12.20397 77.9907 32.08685 -6.495506 -0 0 19.53213 -21.95007 11.57644 14.30894 3.339994 -17.79461 -2.252814 -91.0348 22.70903 23.41015 0 0 -13.4389 0.5952152 8.456004 13.69209
